<?xml version="1.0" encoding="utf-8"?>
<!-- Generator: Adobe Illustrator 22.1.0, SVG Export Plug-In . SVG Version: 6.00 Build 0)  -->
<svg version="1.1" id="Layer_1" xmlns="http://www.w3.org/2000/svg" xmlns:xlink="http://www.w3.org/1999/xlink" x="0px" y="0px"
	 viewBox="0 0 1134.1 1794.8" style="enable-background:new 0 0 1134.1 1794.8;" xml:space="preserve">
<style type="text/css">
	.st0{stroke:#000000;stroke-width:0.216;stroke-miterlimit:22.9256;}
	.st1{fill:#FFFFFF;}
	.st2{enable-background:new    ;}
</style>
<g>
	<polygon class="st0" points="1134,0.1 1134,1794.7 0.1,1794.7 0.1,0.1 	"/>
	<path class="st1" d="M549.8,205.9c4.5-4.5,10.6-7.4,17.4-7.4s12.8,2.8,17.2,7.2L935.5,557l-86.2,86.2L628,421.8v513.8H506.1V422
		L284.7,643.3l-86.2-86.2L549.8,205.9L549.8,205.9z"/>
</g>
<g class="st2">
	<path class="st1" d="M256.6,1491v-295.4H149.9v-64.2h286.6v64.2h-106V1491H256.6z"/>
	<path class="st1" d="M398,1358c0-44.1,12-78.8,35.9-104c23.9-25.2,56.8-37.8,98.6-37.8c41.7,0,74.5,12.6,98.5,37.8
		c24,25.2,36,59.9,36,104c0,44.3-12,79-36,104.2c-24,25.2-56.8,37.8-98.5,37.8c-41.8,0-74.7-12.6-98.6-37.8
		C409.9,1437,398,1402.2,398,1358z M470,1358c0,26.4,5.4,46.7,16.2,61c10.8,14.3,26.2,21.5,46.3,21.5c19.7,0,35-7.2,45.8-21.5
		c10.8-14.3,16.2-34.7,16.2-61c0-26.2-5.4-46.4-16.1-60.7c-10.7-14.2-26-21.4-45.9-21.4c-20,0-35.4,7.1-46.3,21.4
		C475.4,1311.5,470,1331.8,470,1358z"/>
	<path class="st1" d="M716.8,1597.5v-371.8h67.6v35.9c10.3-15.6,21.7-27,34.3-34.2c12.6-7.2,27.5-10.7,44.6-10.7
		c32.7,0,59.2,12.9,79.6,38.7c20.3,25.8,30.5,59.7,30.5,101.7c0,42.5-10.2,76.9-30.5,103.4c-20.3,26.5-46.6,39.7-78.6,39.7
		c-16.9,0-32-3.6-45.3-10.7c-13.3-7.2-24.3-17.6-33.1-31.3v139.4H716.8z M902.9,1359.9c0-26.7-5-47.1-15.1-61.2
		c-10.1-14.1-24.7-21.1-43.9-21.1c-18.9,0-33.2,7-43.1,21c-9.8,14-14.8,34.4-14.8,61.3c0,25.1,5.2,44.4,15.5,58.1
		c10.3,13.7,24.9,20.5,43.8,20.5c17.9,0,32-7,42.2-21C897.7,1403.5,902.9,1384.3,902.9,1359.9z"/>
</g>
<rect x="354.1" y="1596.3" class="st0" width="499.7" height="198.4"/>
</svg>
