<svg version="1.1" id="Layer_1" xmlns="http://www.w3.org/2000/svg" x="0" y="0" viewBox="0 0 85 85" style="enable-background:new 0 0 85 85" xml:space="preserve">
  <style>
    .st0{fill:#0082c9}.st1{fill:#fff}
  </style>
  <path class="st0" d="M11.3 5.7c-3.1 0-5.7 2.6-5.7 5.7v62.4c0 3.1 2.6 5.7 5.7 5.7h62.4c3.1 0 5.7-2.6 5.7-5.7V11.3c0-3.1-2.6-5.7-5.7-5.7H11.3z"/>
  <path class="st1" d="M16.2 29.4h52.7v42.1H16.2z"/>
  <path class="st0" d="M18.8 32h47.4v36.9H18.8z"/>
  <path class="st1" d="M54.6 41.5c-1.4 0-2.5-1.1-2.5-2.5s1.1-2.6 2.5-2.6 2.5 1.1 2.5 2.6c0 1.4-1.1 2.5-2.5 2.5zM46.8 64l-.6-1.7c-1 .4-2 .7-2.9 1.1L40.6 56h-8.3l-.2-2.1h5.7V52H32l-.3-3.8c1.3-.1 2.4-1.2 2.4-2.6 0-1.4-1.1-2.6-2.6-2.6s-2.6 1.1-2.6 2.6c0 .6.2 1.2.5 1.6l1 10.7h8.7l2.9 7.9 4.8-1.8z"/>
  <path class="st1" d="M39.2 60.9c-.6 3-3.3 5.3-6.6 5.3-3.7 0-6.7-2.9-6.7-6.4 0-2.3 1.3-4.3 3.2-5.5l-.2-2c-2.9 1.3-4.8 4.1-4.8 7.4 0 4.6 3.8 8.2 8.5 8.2 3.3 0 6.2-1.8 7.6-4.5l-1-2.5zM52.3 25.3c-.2.2-.5.2-.7 0l-6.9-6.9 1.7-1.7 4.3 4.3V10.9h2.4V21l4.3-4.3 1.7 1.7-6.8 6.9zM32.7 11.1c.2-.2.5-.2.7 0l6.9 6.9-1.7 1.7-4.3-4.3v10h-2.4v-10l-4.3 4.3-1.8-1.7 6.9-6.9zM51.2 66.5c0 .9.7 1.6 1.6 1.6.9 0 1.6-.7 1.6-1.6V54.8c0-.2.1-.3.3-.3.2 0 .3.1.3.3v11.7c0 .9.7 1.6 1.6 1.6.9 0 1.6-.7 1.6-1.6V46.4c0-.2.1-.3.3-.3s.3.1.3.3v7.9c0 .6.5 1.1 1.1 1.1.6 0 1.1-.5 1.1-1.1v-8.7c0-1.7-1.4-3.1-3.1-3.1h-6.3c-1.8 0-3.2 1.4-3.2 3.1v8.7c0 .6.5 1.1 1.1 1.1.6 0 1.1-.5 1.1-1.1v-7.9c0-.2.1-.3.3-.3.2 0 .3.1.3.3v20.1z"/>
</svg>
