<svg version="1.1" id="Layer_1" xmlns="http://www.w3.org/2000/svg" x="0" y="0" viewBox="0 0 1097.2 680.3" style="enable-background:new 0 0 1097.2 680.3" xml:space="preserve">
  <style>
    .st0{fill-rule:evenodd;clip-rule:evenodd}
  </style>
  <path class="st0" d="M1024.5 454.5c-9.8 0-17.7 7.9-17.7 17.7s7.9 17.7 17.7 17.7 17.7-7.9 17.7-17.7-8-17.7-17.7-17.7zm-304.6 0c9.8 0 17.7 7.9 17.7 17.7s-7.9 17.8-17.7 17.8c-9.8 0-17.7-7.9-17.7-17.7s7.9-17.8 17.7-17.8zm152.3-24.3c-19.6 0-35.4 15.9-35.4 35.4 0 19.6 15.9 35.4 35.4 35.4 19.6 0 35.4-15.9 35.4-35.4s-15.9-35.4-35.4-35.4zM659.6 581.1l10.6 42.5H1074l10.6-42.5h-425zm78 56.7v42.5h-35.4v-42.5h-42.6l-14.1-56.7V396.9c0-19.1-.6-37.8 1.9-56.7l26.5-198.4c5.1-38.4 72.2-51.4 141.7-55.2V70.9c0-7.7 6.1-13.9 13.7-14.2h35.9V0h14.2v56.7h35.9c7.6.2 13.7 6.5 13.7 14.2v15.6c69.4 3.9 136.5 16.8 141.7 55.2l26.5 198.4c2.5 18.9 1.9 37.6 1.9 56.7v184.3l-14.2 56.7h-42.5v42.5H1007v-42.5H737.6zm24.8-517.3c-5.9 0-10.7 4.8-10.6 10.6v21.3c-.1 5.9 4.8 10.7 10.6 10.6h219.5c5.9.1 10.7-4.8 10.6-10.6v-21.3c.1-5.9-4.8-10.6-10.6-10.6H762.4zm102.7 63.8H713.7c-10.8 0-19.7 8.1-21.1 18.5L673.8 345c-1.5 11.2 7.3 23.5 21.3 23.5h170V184.3zm14.2 0h151.3c10.8 0 19.7 8.1 21.1 18.5l18.8 142.2c1.5 11.2-7.3 23.5-21.3 23.5h-170l.1-184.2zM479.1 127.3l27.6 203.5c1.8 13.5 3.5 26.1 3.5 39.7v210.6c0 7.8-6.3 14.2-14.2 14.2h-42.5v49.6c0 19.6-15.9 35.4-35.4 35.4s-35.4-15.9-35.4-35.4v-49.6H127.6v49.6c0 19.6-15.9 35.4-35.4 35.4s-35.4-15.9-35.4-35.4v-49.6H14.2C6.4 595.3 0 589 0 581.1V370.5c0-13.6 1.7-26.2 3.5-39.7l27.6-203.5c12.7-94.1 435.3-94.1 448 0zM78 368.5c-21.8 0-42.5-18-39.7-39.7l17.9-136.9c1.4-10.8 8.9-19.8 19.8-19.8h358.2c10.9 0 18.4 9 19.8 19.8l18 136.9c2.8 21.6-17.9 39.7-39.7 39.7H78zm14.1 141.7c-19.6 0-35.4-15.9-35.4-35.4s15.9-35.4 35.4-35.4 35.4 15.9 35.4 35.4-15.8 35.4-35.4 35.4zm326 0c19.6 0 35.4-15.9 35.4-35.4s-15.9-35.4-35.4-35.4-35.4 15.9-35.4 35.4 15.8 35.4 35.4 35.4zM375.6 101c11.7 0 21.3 9.5 21.3 21.3s-9.5 21.3-21.3 21.3h-241c-11.7 0-21.3-9.5-21.3-21.3s9.5-21.3 21.3-21.3h241z"/>
</svg>
