<?xml version="1.0" encoding="utf-8"?>
<!-- Generator: Adobe Illustrator 22.1.0, SVG Export Plug-In . SVG Version: 6.00 Build 0)  -->
<svg version="1.1" id="Layer_1" xmlns="http://www.w3.org/2000/svg" xmlns:xlink="http://www.w3.org/1999/xlink" x="0px" y="0px"
	 viewBox="0 0 566.9 623.6" style="enable-background:new 0 0 566.9 623.6;" xml:space="preserve">
<style type="text/css">
	.st0{fill-rule:evenodd;clip-rule:evenodd;}
</style>
<g>
	<path class="st0" d="M49.6,163c0-15.6,12.7-28.3,28.3-28.3h85c15.6,0,28.3,12.7,28.3,28.3v85c0,15.6-12.7,28.3-28.3,28.3H78
		c-15.6,0-28.3-12.7-28.3-28.3V163L49.6,163z M453.5,511.7h-35.4v112h35.4V511.7L453.5,511.7z M517.3,511.7h-42.5v56.7h42.5V511.7
		L517.3,511.7z M258.7,130.4h49.6c5.9,0,10.6,4.8,10.6,10.6v129c0,5.9-4.8,10.6-10.6,10.6h-49.6c-5.9,0-10.6-4.8-10.6-10.6V141
		C248,135.2,252.8,130.4,258.7,130.4L258.7,130.4z M517.3,163c0-15.6-12.7-28.3-28.3-28.3h-85c-15.6,0-28.3,12.7-28.3,28.3v85
		c0,15.6,12.7,28.3,28.3,28.3h85c15.6,0,28.3-12.7,28.3-28.3V163L517.3,163z M481.9,35.4c9.8,0,17.7,8,17.7,17.7
		c0,9.8-8,17.7-17.7,17.7c-9.8,0-17.7-8-17.7-17.7C464.2,43.4,472.1,35.4,481.9,35.4L481.9,35.4z M85,35.4c-9.8,0-17.7,8-17.7,17.7
		c0,9.8,8,17.7,17.7,17.7c9.8,0,17.7-8,17.7-17.7C102.8,43.4,94.8,35.4,85,35.4L85,35.4z M198.4,28.3h170.1v42.5H198.4V28.3
		L198.4,28.3z M432.3,28.3c9.8,0,17.7,8,17.7,17.7c0,9.8-8,17.7-17.7,17.7c-9.8,0-17.7-8-17.7-17.7
		C414.6,36.3,422.5,28.3,432.3,28.3L432.3,28.3z M134.6,28.3c-9.8,0-17.7,8-17.7,17.7c0,9.8,8,17.7,17.7,17.7
		c9.8,0,17.7-8,17.7-17.7C152.4,36.3,144.4,28.3,134.6,28.3L134.6,28.3z M170.1,479.3h226.8v85H170.1V479.3L170.1,479.3z
		 M113.4,511.7h35.4v112h-35.4V511.7L113.4,511.7z M49.6,511.7h42.5v56.7H49.6V511.7L49.6,511.7z M566.9,497.5
		c0,3.9-3.2,7.1-7.1,7.1H425.2v-41.4H141.7v41.4H7.1c-3.9,0-7.1-3.1-7.1-7L0,78.3C0,51.7,86.6,0,113.4,0h340.2
		c26.8,0,113.4,51.7,113.4,78.3L566.9,497.5L566.9,497.5z M221.8,295.2v9.6c27.1,7.7,43,11.9,57.6,12.6v-16.9h8.5v16.9
		c14.6-0.7,30.4-4.9,57.6-12.6v-9.6h8.5v141.7h-8.5v-22c-26.6,7.5-42.4,11.6-57.6,12.3v14.9h-8.5v-14.9
		c-15.1-0.6-30.9-4.7-57.6-12.3v22h-8.5V295.2H221.8L221.8,295.2z M345.4,406.2v-41.9c-26.6,7.5-42.4,11.6-57.6,12.3v42.2
		C302.4,418,318.3,413.9,345.4,406.2L345.4,406.2z M279.3,418.7v-42.2c-15.1-0.6-30.9-4.7-57.6-12.3v41.9
		C248.9,413.9,264.8,418,279.3,418.7L279.3,418.7z M345.4,355.5v-41.9c-26.6,7.5-42.4,11.6-57.6,12.3v42.2
		C302.4,367.4,318.3,363.2,345.4,355.5L345.4,355.5z M279.3,368.1v-42.2c-15.1-0.6-30.9-4.7-57.6-12.3v41.9
		C248.9,363.2,264.8,367.4,279.3,368.1L279.3,368.1z"/>
</g>
</svg>
