
<svg width="16px" height="16px" viewBox="0 0 16 16" version="1.1" xmlns="http://www.w3.org/2000/svg" xmlns:xlink="http://www.w3.org/1999/xlink">
    <!-- Generator: Sketch 47.1 (45422) - http://www.bohemiancoding.com/sketch -->
    <desc>Created with Sketch.</desc>
    <defs></defs>
    <g id="Symbols" stroke="none" stroke-width="1" fill="none" fill-rule="evenodd">
        <g id="L-navigation" transform="translate(-1261.000000, -41.000000)">
            <g id="white">
                <g id="Search" transform="translate(1016.000000, 24.000000)">
                    <g id="icon/search" transform="translate(240.000000, 12.000000)">
                        <g>
                            <rect id="Rectangle-8" x="0" y="0" width="24" height="24"></rect>
                            <path d="M11.9998906,17 C9.24393369,17 6.99996875,14.757 6.99996875,12 C6.99996875,9.243 9.24393369,7 11.9998906,7 C14.7578475,7 16.9998125,9.243 16.9998125,12 C16.9998125,14.757 14.7578475,17 11.9998906,17 M20.7067546,19.293 L17.5958032,16.201 C17.5938032,16.199 17.5918033,16.199 17.5898033,16.197 C18.4707895,15.026 18.9997813,13.575 18.9997813,12 C18.9997813,8.141 15.8588303,5 11.9998906,5 C8.14095092,5 5,8.141 5,12 C5,15.86 8.14095092,19 11.9998906,19 C13.575866,19 15.0248434,18.471 16.196825,17.59 C16.198825,17.592 16.198825,17.594 16.200825,17.596 L19.2927767,20.708 C19.4877736,20.902 19.7437696,21 19.9997656,21 C20.2557616,21 20.5117576,20.902 20.7067546,20.708 C21.0977485,20.316 21.0977485,19.684 20.7067546,19.293" id="Fill-1" fill="#EC1D24"></path>
                        </g>
                    </g>
                </g>
            </g>
        </g>
    </g>
</svg>