<?xml version="1.0" encoding="UTF-8"?>
<!DOCTYPE svg PUBLIC "-//W3C//DTD SVG 1.1//EN" "http://www.w3.org/Graphics/SVG/1.1/DTD/svg11.dtd">
<!-- Creator: CorelDRAW X7 -->
<svg xmlns="http://www.w3.org/2000/svg" xml:space="preserve" width="80mm" height="42mm" version="1.1" style="shape-rendering:geometricPrecision; text-rendering:geometricPrecision; image-rendering:optimizeQuality; fill-rule:evenodd; clip-rule:evenodd"
viewBox="0 0 8000 4200"
 xmlns:xlink="http://www.w3.org/1999/xlink">
 <defs>
  <style type="text/css">
   <![CDATA[
    .fil1 {fill:#DA251D}
    .fil0 {fill:white}
   ]]>
  </style>
 </defs>
 <g id="Layer_x0020_1">
  <metadata id="CorelCorpID_0Corel-Layer"/>
  <g id="_745134640">
   <path class="fil0" d="M3221 3053l-1689 0 -781 -1025 1879 0 -355 -637 377 0 -215 -561 3126 0 -215 561 377 0 -355 637 1879 0 -781 1025 -1689 0c-197,211 -495,317 -779,317 -284,0 -582,-106 -779,-317z"/>
   <path class="fil1" d="M3672 1781l0 -106 -31 0 -120 158 37 37c8,-11 19,-23 29,-32 25,-23 53,-44 85,-57zm838 -106l-579 0 0 92 47 0 0 532c34,25 80,23 119,18l0 132 -119 0c-1,64 -23,122 -85,148 -22,9 -54,15 -79,13l0 63 523 0 0 -63c-26,2 -58,-4 -80,-13 -64,-26 -86,-86 -86,-151l0 -679 237 0c51,0 98,23 136,55 17,13 36,32 49,50l38 -37 -121 -160zm-273 -258l-869 0 -120 159 37 37c13,-18 32,-36 49,-49 38,-32 85,-54 135,-54l236 0 0 678c0,65 -21,125 -85,152 -22,9 -54,14 -79,12l0 64 523 0 0 -64c-26,2 -58,-3 -80,-12 -64,-27 -86,-86 -86,-152l0 -678 238 0c50,0 97,23 135,54 17,14 36,33 49,50l39 -36 -122 -161zm-33 526c121,17 263,59 340,161l48 -27 -142 -156c-3,4 -8,7 -11,9 -13,9 -27,14 -42,14 -25,0 -56,-7 -79,-15 -38,-13 -76,-25 -114,-35l0 49zm51 616c126,-35 236,-102 331,-194l-41 -38c-95,87 -207,147 -335,170 8,27 21,48 45,62zm-305 -700c-7,0 -13,0 -19,0l0 83c6,0 12,-1 19,-1l0 -82zm-512 531c-43,-50 -67,-109 -71,-175 -1,-20 1,-40 6,-59 13,-61 52,-112 100,-152 57,-48 127,-81 198,-103l6 -2 0 147c-47,42 -84,97 -84,162 0,34 11,66 28,95l2 4c-37,20 -70,18 -110,13l0 124 293 0c45,19 92,33 140,44 -11,48 -41,80 -89,91 -147,-25 -317,-71 -419,-189zm-184 588l-1685 0 -665 -874 1855 0 -355 -637 358 0 -215 -561 2906 0 -215 561 358 0 -355 637 1855 0 -665 874 -1685 0c-183,212 -474,316 -746,316 -272,0 -563,-104 -746,-316zm746 241c263,0 543,-105 710,-317l1683 0 551 -723 -1832 0 355 -636 -339 0 215 -562 -2686 0 215 562 -339 0 355 636 -1832 0 551 723 1683 0c167,212 447,317 710,317zm1051 -930l-281 503 1567 0 384 -503 -1670 0zm-2098 0l281 503 -1568 0 -384 -503 1671 0zm-144 -1208l609 1578c117,305 351,453 584,452 232,1 466,-147 583,-452l609 -1578 -2385 0z"/>
  </g>
 </g>
</svg>
